<?xml version="1.0" encoding="UTF-8" standalone="no"?>
<svg
   width="13.365157mm"
   height="8.4112587mm"
   version="1.1"
   viewBox="0 0 13.365157 8.4112588"
   id="svg18"
   sodipodi:docname="sass-swing-logo-01.svg"
   inkscape:version="1.2.1 (9c6d41e410, 2022-07-14)"
   xmlns:inkscape="http://www.inkscape.org/namespaces/inkscape"
   xmlns:sodipodi="http://sodipodi.sourceforge.net/DTD/sodipodi-0.dtd"
   xmlns="http://www.w3.org/2000/svg"
   xmlns:svg="http://www.w3.org/2000/svg">
  <defs
     id="defs22" />
  <sodipodi:namedview
     id="namedview20"
     pagecolor="#505050"
     bordercolor="#eeeeee"
     borderopacity="1"
     inkscape:showpageshadow="0"
     inkscape:pageopacity="0"
     inkscape:pagecheckerboard="0"
     inkscape:deskcolor="#505050"
     inkscape:document-units="px"
     showgrid="false"
     inkscape:zoom="15.124762"
     inkscape:cx="14.314275"
     inkscape:cy="10.644796"
     inkscape:window-width="1920"
     inkscape:window-height="1017"
     inkscape:window-x="1912"
     inkscape:window-y="-8"
     inkscape:window-maximized="1"
     inkscape:current-layer="svg18" />
  <path
     d="m 7.618111,3.373429 c -0.26456,0.0014 -0.49449,0.06598 -0.68703,0.16145 -0.07064,-0.1418 -0.14128,-0.26815 -0.15375,-0.36081 -0.01385,-0.1081 -0.03047,-0.17408 -0.01385,-0.30324 0.01662,-0.12916 0.09142,-0.31307 0.09003,-0.32711 -0.0014,-0.01404 -0.01662,-0.08002 -0.16899,-0.08143 -0.15236,-0.0014 -0.28395,0.02948 -0.29919,0.0702 -0.01524,0.04071 -0.04433,0.13337 -0.06372,0.22884 -0.02631,0.14039 -0.30473,0.64159 -0.46402,0.90412 -0.05125,-0.10249 -0.09557,-0.19234 -0.10527,-0.26394 -0.01385,-0.1081 -0.03048,-0.17408 -0.01385,-0.30324 0.01662,-0.12916 0.09142,-0.31307 0.09003,-0.32711 -0.0014,-0.01404 -0.01662,-0.08002 -0.16899,-0.08143 -0.15236,-0.0014 -0.28395,0.02948 -0.29919,0.0702 -0.01523,0.04071 -0.03186,0.13618 -0.06372,0.22884 -0.03186,0.09266 -0.40169,0.92939 -0.49865,1.1456 -0.04987,0.11091 -0.09281,0.19936 -0.12328,0.25972 v 0 c 0,0 -0.0014,0.0042 -0.0055,0.01123 -0.02632,0.05195 -0.04156,0.08002 -0.04156,0.08002 v 0.0014 c -0.02078,0.03791 -0.04294,0.073 -0.05402,0.073 -0.0083,0 -0.02355,-0.10108 0.0027,-0.23867 0.05541,-0.29061 0.18699,-0.74267 0.18561,-0.75811 0,-0.0084 0.02493,-0.08704 -0.08588,-0.12776 -0.10804,-0.04071 -0.14682,0.02667 -0.15652,0.02667 -0.0097,0 -0.01662,0.02387 -0.01662,0.02387 0,0 0.12051,-0.50822 -0.22993,-0.50822 -0.21885,0 -0.52081,0.24288 -0.6704,0.46189 -0.09419,0.05194 -0.29503,0.16285 -0.50973,0.28219 -0.08172,0.04633 -0.16622,0.09266 -0.24517,0.13618 -0.0055,-0.0056 -0.01108,-0.01264 -0.01662,-0.01825 -0.42385,-0.45908 -1.2078,-0.78338 -1.1746,-1.3997 0.01246,-0.22463 0.08865,-0.81427 1.5056,-1.5303 1.1663,-0.58262 2.0943,-0.42117 2.255,-0.06318 0.22993,0.51102 -0.49726,1.4601 -1.7023,1.5977 -0.45986,0.05194 -0.70088,-0.12776 -0.76182,-0.19514 -0.06372,-0.07019 -0.07341,-0.07441 -0.09696,-0.06037 -0.03878,0.02106 -0.01385,0.08423 0,0.12074 0.03601,0.09547 0.18422,0.26394 0.43493,0.34677 0.22162,0.073 0.76044,0.11372 1.4128,-0.1418 0.72996,-0.2864 1.3006,-1.0824 1.133,-1.7493 -0.1676,-0.67669 -1.2757,-0.89991 -2.3243,-0.52226 -0.62331,0.22463 -1.2993,0.57841 -1.7854,1.0389 -0.5776,0.54753 -0.66902,1.0235 -0.63162,1.2228 0.13436,0.70757 1.097,1.1681 1.4821,1.5092 -0.0194,0.01123 -0.0374,0.02106 -0.05263,0.02948 -0.19253,0.09687 -0.92666,0.48575 -1.1095,0.8971 -0.20777,0.4661 0.03324,0.80023 0.19253,0.84516 0.49449,0.13899 1.0028,-0.11091 1.2757,-0.52366 0.27287,-0.41275 0.23963,-0.94904 0.11358,-1.1947 -0.0014,-0.0028 -0.0027,-0.0056 -0.0055,-0.0084 0.04986,-0.02948 0.10112,-0.06037 0.15098,-0.08985 0.09835,-0.05896 0.1953,-0.11372 0.27841,-0.15864 -0.04709,0.13056 -0.08172,0.2864 -0.09834,0.51102 -0.02078,0.26394 0.08588,0.60649 0.22578,0.74127 0.06233,0.05896 0.13574,0.06037 0.18284,0.06037 0.16345,0 0.23686,-0.13758 0.31858,-0.30044 0.09973,-0.19936 0.18976,-0.431 0.18976,-0.431 0,0 -0.1122,0.62615 0.19253,0.62615 0.11081,0 0.22301,-0.14601 0.27287,-0.22042 v 0.0014 c 0,0 0.0027,-0.0042 0.0083,-0.01404 0.01108,-0.01825 0.01801,-0.02948 0.01801,-0.02948 v -0.0028 c 0.04433,-0.07862 0.14405,-0.25692 0.29226,-0.55314 0.19115,-0.38186 0.37537,-0.8592 0.37537,-0.8592 0,0 0.01662,0.11652 0.07341,0.31026 0.03324,0.11372 0.1025,0.23866 0.15791,0.3594 -0.04433,0.06318 -0.07203,0.09827 -0.07203,0.09827 l 0.0014,0.0014 c -0.03601,0.04773 -0.0748,0.09968 -0.11774,0.15022 -0.15098,0.18251 -0.33105,0.39169 -0.35598,0.45206 -0.02909,0.0716 -0.02216,0.12354 0.03324,0.16566 0.04017,0.03089 0.1122,0.0351 0.18561,0.03089 0.13574,-0.0098 0.23132,-0.04352 0.27841,-0.06458 0.07341,-0.02667 0.15929,-0.06739 0.23963,-0.12776 0.14821,-0.11091 0.23824,-0.26955 0.22993,-0.47873 -0.0041,-0.11512 -0.04156,-0.23024 -0.08726,-0.33834 0.01385,-0.01965 0.02632,-0.03931 0.04017,-0.05896 0.23409,-0.34677 0.41554,-0.72723 0.41554,-0.72723 0,0 0.01662,0.11652 0.07341,0.31026 0.0277,0.09827 0.08449,0.20497 0.13436,0.30886 -0.22024,0.1811 -0.35598,0.39169 -0.40446,0.52928 -0.08726,0.25551 -0.0194,0.37063 0.10942,0.39731 0.05818,0.01264 0.14128,-0.01544 0.20223,-0.04212 0.07757,-0.02527 0.16899,-0.06879 0.25625,-0.13337 0.14821,-0.11091 0.29088,-0.26534 0.28257,-0.47452 -0.0041,-0.09547 -0.02909,-0.18953 -0.06372,-0.28078 0.18699,-0.07862 0.42801,-0.12214 0.73551,-0.08564 0.65932,0.07862 0.78953,0.49558 0.76459,0.67107 -0.02493,0.17549 -0.16345,0.27096 -0.20916,0.30044 -0.04571,0.02948 -0.06095,0.03931 -0.05679,0.06037 0.0055,0.03089 0.0277,0.02948 0.06649,0.02387 0.05402,-0.0098 0.34628,-0.1418 0.35875,-0.4647 0.02078,-0.41275 -0.36706,-0.86341 -1.0527,-0.8592 z m -5.0862,1.738 c -0.21885,0.24147 -0.52358,0.33273 -0.65517,0.25551 -0.14128,-0.08283 -0.08588,-0.43942 0.18284,-0.69494 0.16344,-0.15583 0.37398,-0.30044 0.51388,-0.38888 0.03186,-0.01965 0.07895,-0.04773 0.13574,-0.08283 0.0097,-0.0056 0.01524,-0.0084 0.01524,-0.0084 v 0 c 0.01108,-0.007 0.02216,-0.01404 0.03324,-0.02106 0.09834,0.36502 0.0041,0.68651 -0.22578,0.94062 z m 1.5929,-1.0979 c -0.07618,0.18812 -0.23547,0.66967 -0.33243,0.64299 -0.08311,-0.02246 -0.13436,-0.38748 -0.01662,-0.74829 0.05956,-0.1811 0.18561,-0.39731 0.25902,-0.48154 0.11912,-0.13478 0.25071,-0.1797 0.28257,-0.12495 0.04017,0.0716 -0.14544,0.59386 -0.19254,0.71178 z m 1.3145,0.63738 c -0.03186,0.01685 -0.06233,0.02808 -0.07618,0.01965 -0.0097,-0.0056 0.01385,-0.02808 0.01385,-0.02808 0,0 0.16483,-0.1797 0.22993,-0.26113 0.0374,-0.04773 0.08172,-0.10389 0.12882,-0.16706 v 0.01825 c 0,0.2148 -0.205,0.3594 -0.29642,0.41837 z m 1.0139,-0.23445 c -0.02355,-0.01685 -0.01939,-0.073 0.05956,-0.24849 0.03048,-0.06879 0.1025,-0.18391 0.22578,-0.29482 0.01385,0.04493 0.02355,0.08845 0.02216,0.12916 -0.0014,0.27096 -0.19253,0.37204 -0.3075,0.41415 z"
     fill="#cd6799"
     stroke-linecap="round"
     stroke-linejoin="round"
     stroke-width="0.11928"
     id="path2"
     style="stroke:none;stroke-opacity:1;stroke-width:0.03995208;stroke-dasharray:none" />
  <g
     transform="matrix(0.028978,-0.00279,0.0030852,0.026206,-2.949889,-9.064571)"
     fill="#eb96eb"
     stroke-width="4.088"
     style="white-space:pre;shape-inside:url(#rect2570);stroke:none;stroke-opacity:1;stroke-width:1.22205393;stroke-dasharray:none"
     aria-label="Swing"
     id="g14">
    <path
       d="m 139.18,598.64 13.632,-0.192 v 7.872 q -2.304,-0.384 -5.376,-0.384 -3.072,0 -6.912,0.384 0,14.784 -14.208,29.952 -14.208,15.168 -34.368,24.576 -19.968,9.6 -37.248,9.6 -9.024,0 -14.784,-4.608 -5.568,-4.608 -5.568,-12.096 0,-11.136 14.784,-23.232 14.784,-12.096 34.56,-19.968 19.776,-7.872 35.712,-9.216 -1.92,-2.88 -5.952,-4.992 -4.032,-2.112 -16.512,-6.528 -12.48,-4.608 -17.664,-9.984 -5.184,-5.568 -5.184,-15.552 0,-9.984 10.752,-22.848 10.752,-12.864 25.344,-21.504 14.784,-8.832 25.92,-8.832 4.992,0 8.256,3.648 3.264,3.456 3.264,8.64 0,8.448 -10.176,21.312 -10.176,12.672 -22.656,19.392 l -4.608,-6.528 q 7.488,-3.84 13.056,-11.904 5.76,-8.256 5.76,-14.208 0,-5.952 -6.336,-5.952 -9.024,0 -20.736,11.328 -11.52,11.136 -11.52,20.928 0,6.72 3.456,10.56 3.456,3.84 17.472,9.6 14.016,5.568 19.968,9.984 5.952,4.224 7.872,10.752 z m -85.632,50.112 q 0,9.216 14.976,9.216 8.256,0 21.312,-6.144 13.248,-5.952 23.232,-16.896 10.176,-10.752 10.176,-22.08 0,-1.344 -0.576,-4.032 -26.304,2.496 -47.808,14.784 -21.312,12.288 -21.312,25.152 z"
       id="path4"
       style="stroke:none;stroke-opacity:1;stroke-width:1.22205393;stroke-dasharray:none" />
    <path
       d="m 264.56,558.7 5.376,4.992 -11.52,14.016 q -20.352,25.152 -30.144,49.92 -2.496,5.184 -5.184,5.184 -2.496,0 -4.224,-0.576 -1.536,-0.768 -3.648,-4.992 -1.92,-4.224 -2.688,-10.176 -0.768,-5.952 -1.344,-10.176 -0.576,-4.224 -0.768,-6.144 -0.192,-2.112 -0.576,-4.224 -0.192,-2.304 -0.384,-3.456 -0.192,-1.152 -0.384,-2.304 -0.192,-1.152 -0.576,-2.112 -0.384,-1.152 -0.576,-1.92 -0.192,-0.96 -0.96,-3.072 -0.576,-2.112 -0.96,-3.648 -9.984,10.752 -17.088,25.344 -2.688,5.568 -10.56,22.272 -1.728,3.648 -4.8,3.648 -2.88,0 -4.8,-0.576 -1.728,-0.768 -3.648,-4.608 -1.92,-3.84 -2.88,-11.52 -4.608,-38.592 -8.832,-52.608 5.568,-1.536 11.136,-1.536 0.96,1.728 2.496,10.56 3.264,17.088 8.256,40.128 9.408,-18.048 20.736,-33.216 11.52,-15.36 15.168,-15.36 4.224,0 5.76,5.952 1.728,5.76 2.88,19.584 1.344,13.632 3.456,22.848 18.048,-30.912 41.28,-52.224 z"
       id="path6"
       style="stroke:none;stroke-opacity:1;stroke-width:1.22205393;stroke-dasharray:none" />
    <path
       d="m 309.29,551.98 q -10.752,0 -10.752,-8.64 0,-4.8 2.688,-8.064 2.688,-3.264 6.912,-3.264 4.224,0 6.912,2.496 2.688,2.496 2.688,6.528 0,4.032 -2.304,7.488 -2.304,3.456 -6.144,3.456 z m -2.496,56.64 3.84,3.264 q -4.608,8.832 -12.288,15.168 -7.488,6.144 -13.632,6.144 -10.752,0 -10.752,-14.976 0,-18.624 15.36,-48.576 3.456,-6.528 4.032,-7.68 l 8.256,4.992 q -4.032,7.296 -9.984,23.232 -5.76,15.936 -5.76,20.544 0,4.416 1.92,6.336 1.92,1.92 4.608,1.92 5.184,0 14.4,-10.368 z"
       id="path8"
       style="stroke:none;stroke-opacity:1;stroke-width:1.22205393;stroke-dasharray:none" />
    <path
       d="m 402.03,610.16 4.032,3.072 q -4.224,8.448 -11.712,14.208 -7.296,5.76 -13.248,5.76 -5.952,0 -9.408,-3.456 -3.456,-3.456 -3.456,-8.64 0,-5.184 6.528,-18.048 6.72,-13.056 6.72,-19.2 0,-2.688 -2.304,-4.8 -2.112,-2.304 -5.184,-2.304 -9.792,0 -19.776,14.976 -9.984,14.784 -22.272,42.816 l -11.52,-4.032 q 3.648,-22.272 10.368,-43.392 6.912,-21.312 12.672,-30.528 l 7.872,2.496 q -5.376,13.632 -13.632,47.04 26.496,-45.312 48.768,-45.312 4.8,0 7.872,3.264 3.264,3.264 3.264,7.68 0,4.416 -1.152,8.064 -1.152,3.456 -7.296,16.512 -5.952,12.864 -5.952,16.128 0,3.264 1.92,5.184 1.92,1.728 3.648,1.728 1.728,0 2.88,-0.576 1.152,-0.576 2.496,-1.728 1.536,-1.152 2.688,-2.112 1.152,-0.96 2.688,-2.496 1.728,-1.728 2.496,-2.304 z"
       id="path10"
       style="stroke:none;stroke-opacity:1;stroke-width:1.22205393;stroke-dasharray:none" />
    <path
       d="m 493.42,626.48 0.192,4.608 q -1.92,1.152 -17.472,6.912 -6.144,36.672 -18.048,52.992 -11.904,16.32 -29.184,16.32 -8.064,0 -12.864,-5.184 -4.8,-5.184 -4.8,-13.44 0,-16.512 15.168,-30.912 15.168,-14.208 40.512,-22.464 2.88,-12.864 10.368,-36.288 -12.864,19.584 -23.424,26.496 -10.368,6.912 -18.816,6.912 -8.448,0 -12.864,-4.608 -4.224,-4.608 -4.224,-12.288 0,-12.672 10.56,-25.728 10.56,-13.248 26.496,-21.504 16.128,-8.448 31.104,-8.448 l 1.536,6.72 q -21.312,2.304 -36.672,14.976 -15.168,12.672 -15.168,24.384 0,4.992 3.072,8.256 3.072,3.264 7.488,3.264 6.528,0 19.776,-13.824 13.248,-13.824 18.624,-23.616 l 7.104,4.032 q -10.56,28.224 -14.592,47.616 z m -27.648,14.592 q -16.704,7.68 -27.648,18.432 -10.944,10.752 -10.944,19.584 0,4.608 2.688,7.488 2.688,2.88 6.72,2.88 8.064,0 15.936,-11.328 7.872,-11.328 13.248,-37.056 z"
       id="path12"
       style="stroke:none;stroke-opacity:1;stroke-width:1.22205393;stroke-dasharray:none" />
  </g>
</svg>
