<svg width="32" height="32" version="1.1" viewBox="0 0 8.4667 8.4667" xmlns="http://www.w3.org/2000/svg">
 <g transform="translate(-68.282 -59.232)">
  <g transform="matrix(1.0497 0 0 1.0064 -3.6674 -.38806)" stroke="#faf5fa">
   <path d="m73.209 62.91c-0.15892 8.68e-4 -0.29704 0.04089-0.4127 0.10005-0.04244-0.08787-0.08487-0.16618-0.09236-0.2236-0.0083-0.06699-0.01831-0.10788-0.0083-0.18793 0.01-0.08004 0.05491-0.19402 0.05409-0.20272-8.41e-4 -0.0087-0.01-0.04959-0.10151-0.05046-0.09152-8.68e-4 -0.17057 0.01827-0.17972 0.0435-0.0092 0.02523-0.02663 0.08265-0.03828 0.14182-0.01581 0.087-0.18305 0.3976-0.27874 0.5603-0.03079-0.06351-0.05741-0.1192-0.06323-0.16357-0.0083-0.06699-0.01831-0.10788-0.0083-0.18793 0.01-0.08004 0.05492-0.19402 0.05409-0.20272-8.42e-4 -0.0087-0.01-0.04959-0.10151-0.05046-0.09152-8.68e-4 -0.17057 0.01827-0.17972 0.0435-0.0092 0.02523-0.01914 0.08439-0.03828 0.14182-0.01914 0.05743-0.2413 0.57596-0.29954 0.70995-0.02996 0.06873-0.05575 0.12354-0.07405 0.16096v0s-8.42e-4 0.0026-0.0033 0.0069c-0.01581 0.0322-0.02497 0.04959-0.02497 0.04959v8.67e-4c-0.01248 0.02349-0.0258 0.04525-0.03245 0.04525-5e-3 0-0.01415-0.06265 0.0016-0.14791 0.03329-0.1801 0.11233-0.46025 0.1115-0.46982 0-0.0052 0.01498-0.05394-0.05159-0.07917-0.0649-0.02523-0.0882 0.01652-0.09402 0.01652-0.0058 0-0.01 0.01479-0.01 0.01479s0.07239-0.31495-0.13812-0.31495c-0.13146 0-0.31285 0.15052-0.40271 0.28624-0.05658 0.03218-0.17723 0.10093-0.3062 0.17488-0.04909 0.02871-0.09985 0.05743-0.14727 0.08439-0.0033-0.0035-0.0067-0.0078-0.01-0.01131-0.25461-0.2845-0.72555-0.48548-0.70558-0.86743 0.0075-0.1392 0.05325-0.50462 0.90444-0.94834 0.70059-0.36106 1.2581-0.26101 1.3546-0.03916 0.13812 0.31669-0.29871 0.90484-1.0226 0.9901-0.27624 0.03218-0.42102-0.07917-0.45763-0.12094-0.03828-0.0435-0.0441-0.04611-0.05824-0.03741-0.0233 0.01305-0.0083 0.0522 0 0.07482 0.02163 0.05917 0.11066 0.16357 0.26126 0.2149 0.13313 0.04524 0.4568 0.07048 0.84869-0.08787 0.43849-0.17749 0.7813-0.6708 0.68062-1.0841-0.10068-0.41936-0.76632-0.55769-1.3962-0.32365-0.37442 0.13921-0.78046 0.35846-1.0725 0.64383-0.34696 0.33931-0.40188 0.63426-0.37942 0.7578 0.08071 0.4385 0.65898 0.72387 0.8903 0.93529-0.01166 0.0069-0.02247 0.01305-0.03162 0.01827-0.11566 0.06004-0.55664 0.30103-0.66647 0.55595-0.12481 0.28885 0.01997 0.49592 0.11566 0.52376 0.29704 0.08614 0.60241-0.06873 0.76632-0.32452 0.16391-0.25579 0.14394-0.58814 0.06822-0.7404-8.41e-4 -0.0018-0.0016-0.0035-0.0033-0.0052 0.02995-0.01827 0.06074-0.03741 0.09069-0.05568 0.05907-0.03654 0.11732-0.07048 0.16724-0.09831-0.02829 0.08092-0.04909 0.17749-0.05907 0.31669-0.01248 0.16357 0.05159 0.37586 0.13562 0.45938 0.03745 0.03654 0.08154 0.03742 0.10983 0.03742 0.09818 0 0.14228-0.08526 0.19137-0.18619 0.05991-0.12354 0.11399-0.2671 0.11399-0.2671s-0.06739 0.38804 0.11566 0.38804c0.06656 0 0.13396-0.09049 0.16392-0.1366v8.68e-4s0.0016-0.0026 5e-3 -0.0087c0.0067-0.01131 0.01082-0.01827 0.01082-0.01827v-0.0018c0.02663-0.04872 0.08653-0.15922 0.17556-0.3428 0.11482-0.23665 0.22548-0.53246 0.22548-0.53246s0.01 0.07221 0.0441 0.19228c0.01997 0.07048 0.06157 0.14791 0.09485 0.22273-0.02663 0.03916-0.04327 0.0609-0.04327 0.0609l8.41e-4 8.68e-4c-0.02163 0.02958-0.04493 0.06177-0.07072 0.0931-0.09069 0.1131-0.19886 0.24274-0.21384 0.28015-0.01748 0.04437-0.01331 0.07656 0.01997 0.10266 0.02413 0.01915 0.06739 0.02176 0.1115 0.01915 0.08154-0.0061 0.13895-0.02697 0.16724-0.04002 0.0441-0.01653 0.09569-0.04177 0.14394-0.07917 0.08903-0.06873 0.14311-0.16705 0.13812-0.29668-0.0025-0.07134-0.02497-0.14268-0.05241-0.20968 0.0083-0.01217 0.01581-0.02436 0.02413-0.03654 0.14062-0.2149 0.24962-0.45068 0.24962-0.45068s0.01 0.07221 0.0441 0.19228c0.01664 0.0609 0.05076 0.12702 0.08071 0.19141-0.1323 0.11224-0.21384 0.24274-0.24296 0.328-0.05241 0.15835-0.01166 0.22969 0.06573 0.24622 0.03495 0.0078 0.08487-0.0096 0.12148-0.0261 0.04659-0.01566 0.10151-0.04263 0.15393-0.08265 0.08903-0.06873 0.17473-0.16444 0.16974-0.29407-0.0025-0.05917-0.01748-0.11746-0.03828-0.17401 0.11233-0.04872 0.2571-0.0757 0.44182-0.05307 0.39606 0.04872 0.47427 0.30712 0.45929 0.41588-0.01498 0.10875-0.09818 0.16792-0.12564 0.18619s-0.03662 0.02437-0.03412 0.03741c0.0033 0.01915 0.01664 0.01827 0.03994 0.01479 0.03245-0.0061 0.20801-0.08787 0.2155-0.28798 0.01248-0.25579-0.22049-0.53507-0.63236-0.53246zm-3.0553 1.0771c-0.13146 0.14964-0.31452 0.2062-0.39356 0.15835-0.08487-0.05133-0.05159-0.27232 0.10983-0.43067 0.09818-0.09658 0.22465-0.18619 0.30869-0.241 0.01914-0.01217 0.04743-0.02958 0.08154-0.05133 0.0058-0.0035 0.0092-0.0052 0.0092-0.0052v0c0.0067-0.0043 0.01331-0.0087 0.01997-0.01305 0.05907 0.22621 0.0025 0.42545-0.13562 0.58292zm0.95686-0.68037c-0.04577 0.11658-0.14145 0.41501-0.19969 0.39848-0.04993-0.01392-0.08071-0.24013-0.01-0.46373 0.03578-0.11223 0.11149-0.24622 0.15559-0.29842 0.07155-0.08353 0.1506-0.11136 0.16974-0.07743 0.02413 0.04437-0.08736 0.36803-0.11566 0.44111zm0.78962 0.395c-0.01914 0.01044-0.03745 0.0174-0.04577 0.01218-0.0058-0.0035 0.0083-0.0174 0.0083-0.0174s0.09901-0.11136 0.13812-0.16183c0.02247-0.02958 0.04909-0.06438 0.07738-0.10353v0.01131c0 0.13312-0.12314 0.22273-0.17806 0.25927zm0.60906-0.1453c-0.01415-0.01044-0.01165-0.04523 0.03578-0.154 0.01831-0.04263 0.06157-0.11397 0.13562-0.18271 0.0083 0.02784 0.01415 0.05482 0.01331 0.08004-8.41e-4 0.16792-0.11566 0.23056-0.18472 0.25666z" fill="#cd6799" stroke-linecap="round" stroke-linejoin="round" stroke-width=".072778"/>
   <g transform="matrix(.017489 -.0017371 .0018619 .016316 66.764 55.198)" fill="#eb96eb" stroke-width="4.088" style="shape-inside:url(#rect2570);white-space:pre" aria-label="Swing">
    <path d="m139.18 598.64 13.632-0.192v7.872q-2.304-0.384-5.376-0.384t-6.912 0.384q0 14.784-14.208 29.952t-34.368 24.576q-19.968 9.6-37.248 9.6-9.024 0-14.784-4.608-5.568-4.608-5.568-12.096 0-11.136 14.784-23.232t34.56-19.968q19.776-7.872 35.712-9.216-1.92-2.88-5.952-4.992t-16.512-6.528q-12.48-4.608-17.664-9.984-5.184-5.568-5.184-15.552t10.752-22.848 25.344-21.504q14.784-8.832 25.92-8.832 4.992 0 8.256 3.648 3.264 3.456 3.264 8.64 0 8.448-10.176 21.312-10.176 12.672-22.656 19.392l-4.608-6.528q7.488-3.84 13.056-11.904 5.76-8.256 5.76-14.208t-6.336-5.952q-9.024 0-20.736 11.328-11.52 11.136-11.52 20.928 0 6.72 3.456 10.56t17.472 9.6q14.016 5.568 19.968 9.984 5.952 4.224 7.872 10.752zm-85.632 50.112q0 9.216 14.976 9.216 8.256 0 21.312-6.144 13.248-5.952 23.232-16.896 10.176-10.752 10.176-22.08 0-1.344-0.576-4.032-26.304 2.496-47.808 14.784-21.312 12.288-21.312 25.152z"/>
    <path d="m264.56 558.7 5.376 4.992-11.52 14.016q-20.352 25.152-30.144 49.92-2.496 5.184-5.184 5.184-2.496 0-4.224-0.576-1.536-0.768-3.648-4.992-1.92-4.224-2.688-10.176t-1.344-10.176-0.768-6.144q-0.192-2.112-0.576-4.224-0.192-2.304-0.384-3.456t-0.384-2.304-0.576-2.112q-0.384-1.152-0.576-1.92-0.192-0.96-0.96-3.072-0.576-2.112-0.96-3.648-9.984 10.752-17.088 25.344-2.688 5.568-10.56 22.272-1.728 3.648-4.8 3.648-2.88 0-4.8-0.576-1.728-0.768-3.648-4.608t-2.88-11.52q-4.608-38.592-8.832-52.608 5.568-1.536 11.136-1.536 0.96 1.728 2.496 10.56 3.264 17.088 8.256 40.128 9.408-18.048 20.736-33.216 11.52-15.36 15.168-15.36 4.224 0 5.76 5.952 1.728 5.76 2.88 19.584 1.344 13.632 3.456 22.848 18.048-30.912 41.28-52.224z"/>
    <path d="m309.29 551.98q-10.752 0-10.752-8.64 0-4.8 2.688-8.064t6.912-3.264 6.912 2.496 2.688 6.528-2.304 7.488-6.144 3.456zm-2.496 56.64 3.84 3.264q-4.608 8.832-12.288 15.168-7.488 6.144-13.632 6.144-10.752 0-10.752-14.976 0-18.624 15.36-48.576 3.456-6.528 4.032-7.68l8.256 4.992q-4.032 7.296-9.984 23.232-5.76 15.936-5.76 20.544 0 4.416 1.92 6.336t4.608 1.92q5.184 0 14.4-10.368z"/>
    <path d="m402.03 610.16 4.032 3.072q-4.224 8.448-11.712 14.208-7.296 5.76-13.248 5.76t-9.408-3.456-3.456-8.64 6.528-18.048q6.72-13.056 6.72-19.2 0-2.688-2.304-4.8-2.112-2.304-5.184-2.304-9.792 0-19.776 14.976-9.984 14.784-22.272 42.816l-11.52-4.032q3.648-22.272 10.368-43.392 6.912-21.312 12.672-30.528l7.872 2.496q-5.376 13.632-13.632 47.04 26.496-45.312 48.768-45.312 4.8 0 7.872 3.264 3.264 3.264 3.264 7.68t-1.152 8.064q-1.152 3.456-7.296 16.512-5.952 12.864-5.952 16.128t1.92 5.184q1.92 1.728 3.648 1.728t2.88-0.576 2.496-1.728q1.536-1.152 2.688-2.112t2.688-2.496q1.728-1.728 2.496-2.304z"/>
    <path d="m493.42 626.48 0.192 4.608q-1.92 1.152-17.472 6.912-6.144 36.672-18.048 52.992t-29.184 16.32q-8.064 0-12.864-5.184t-4.8-13.44q0-16.512 15.168-30.912 15.168-14.208 40.512-22.464 2.88-12.864 10.368-36.288-12.864 19.584-23.424 26.496-10.368 6.912-18.816 6.912t-12.864-4.608q-4.224-4.608-4.224-12.288 0-12.672 10.56-25.728 10.56-13.248 26.496-21.504 16.128-8.448 31.104-8.448l1.536 6.72q-21.312 2.304-36.672 14.976-15.168 12.672-15.168 24.384 0 4.992 3.072 8.256t7.488 3.264q6.528 0 19.776-13.824t18.624-23.616l7.104 4.032q-10.56 28.224-14.592 47.616zm-27.648 14.592q-16.704 7.68-27.648 18.432t-10.944 19.584q0 4.608 2.688 7.488t6.72 2.88q8.064 0 15.936-11.328t13.248-37.056z"/>
   </g>
  </g>
 </g>
</svg>
