<?xml version="1.0" encoding="UTF-8" standalone="no"?>
<!-- Created with Inkscape (http://www.inkscape.org/) -->

<svg
   width="32"
   height="32"
   viewBox="0 0 8.4666664 8.4666667"
   version="1.1"
   id="svg5"
   inkscape:version="1.1 (c68e22c387, 2021-05-23)"
   sodipodi:docname="favicon-original.svg"
   xmlns:inkscape="http://www.inkscape.org/namespaces/inkscape"
   xmlns:sodipodi="http://sodipodi.sourceforge.net/DTD/sodipodi-0.dtd"
   xmlns="http://www.w3.org/2000/svg"
   xmlns:svg="http://www.w3.org/2000/svg">
  <sodipodi:namedview
     id="namedview7"
     pagecolor="#ffffff"
     bordercolor="#666666"
     borderopacity="1.0"
     inkscape:pageshadow="2"
     inkscape:pageopacity="0.0"
     inkscape:pagecheckerboard="0"
     inkscape:document-units="mm"
     showgrid="false"
     inkscape:zoom="14.481547"
     inkscape:cx="31.971723"
     inkscape:cy="12.740352"
     inkscape:window-width="1920"
     inkscape:window-height="1017"
     inkscape:window-x="-8"
     inkscape:window-y="-8"
     inkscape:window-maximized="1"
     inkscape:current-layer="layer1"
     fit-margin-top="0"
     fit-margin-left="0"
     fit-margin-right="0"
     fit-margin-bottom="0"
     units="px" />
  <defs
     id="defs2">
    <rect
       x="38.192238"
       y="476.57272"
       width="704.06561"
       height="416.79355"
       id="rect2570" />
  </defs>
  <g
     inkscape:label="Calque 1"
     inkscape:groupmode="layer"
     id="layer1"
     transform="translate(-68.282033,-59.232297)">
    <g
       id="g826"
       style="fill:#cd6799;fill-opacity:1;stroke:#faf5fa;stroke-width:8.55375;stroke-linecap:round;stroke-linejoin:round;stroke-miterlimit:4;stroke-dasharray:none;stroke-opacity:1"
       transform="matrix(0.01385135,0,0,0.01403914,73.374761,61.434515)" />
    <g
       id="g828"
       style="fill:#cd6799;fill-opacity:1;stroke:#faf5fa;stroke-width:8.55375;stroke-linecap:round;stroke-linejoin:round;stroke-miterlimit:4;stroke-dasharray:none;stroke-opacity:1"
       transform="matrix(0.01385135,0,0,0.01403914,73.374761,61.434515)" />
    <g
       id="g830"
       style="fill:#cd6799;fill-opacity:1;stroke:#faf5fa;stroke-width:8.55375;stroke-linecap:round;stroke-linejoin:round;stroke-miterlimit:4;stroke-dasharray:none;stroke-opacity:1"
       transform="matrix(0.01385135,0,0,0.01403914,73.374761,61.434515)" />
    <g
       id="g832"
       style="fill:#cd6799;fill-opacity:1;stroke:#faf5fa;stroke-width:8.55375;stroke-linecap:round;stroke-linejoin:round;stroke-miterlimit:4;stroke-dasharray:none;stroke-opacity:1"
       transform="matrix(0.01385135,0,0,0.01403914,73.374761,61.434515)" />
    <g
       id="g834"
       style="fill:#cd6799;fill-opacity:1;stroke:#faf5fa;stroke-width:8.55375;stroke-linecap:round;stroke-linejoin:round;stroke-miterlimit:4;stroke-dasharray:none;stroke-opacity:1"
       transform="matrix(0.01385135,0,0,0.01403914,73.374761,61.434515)" />
    <g
       id="g836"
       style="fill:#cd6799;fill-opacity:1;stroke:#faf5fa;stroke-width:8.55375;stroke-linecap:round;stroke-linejoin:round;stroke-miterlimit:4;stroke-dasharray:none;stroke-opacity:1"
       transform="matrix(0.01385135,0,0,0.01403914,73.374761,61.434515)" />
    <g
       id="g39824"
       transform="matrix(1.0496706,0,0,1.006376,-3.66735,-0.38806398)">
      <path
         fill="#cd6799"
         d="m 73.209346,62.910158 c -0.158922,8.68e-4 -0.297043,0.04089 -0.412698,0.100052 -0.04244,-0.08787 -0.08487,-0.166177 -0.09236,-0.2236 -0.0083,-0.06699 -0.01831,-0.107885 -0.0083,-0.187927 0.01,-0.08004 0.05491,-0.194019 0.05409,-0.202719 -8.41e-4,-0.0087 -0.01,-0.04959 -0.10151,-0.05046 -0.09152,-8.68e-4 -0.170572,0.01827 -0.179724,0.0435 -0.0092,0.02523 -0.02663,0.08265 -0.03828,0.141816 -0.01581,0.087 -0.183051,0.397605 -0.278737,0.560302 -0.03079,-0.06351 -0.05741,-0.119195 -0.06323,-0.163567 -0.0083,-0.06699 -0.01831,-0.107884 -0.0083,-0.187927 0.01,-0.08004 0.05492,-0.194018 0.05409,-0.202718 -8.42e-4,-0.0087 -0.01,-0.04959 -0.101511,-0.05046 -0.09152,-8.68e-4 -0.17057,0.01827 -0.179723,0.0435 -0.0092,0.02523 -0.01914,0.08439 -0.03828,0.141816 -0.01914,0.05743 -0.241295,0.575963 -0.299538,0.709948 -0.02996,0.06873 -0.05575,0.123545 -0.07405,0.160957 0,0 0,0 0,0 0,0 -8.42e-4,0.0026 -0.0033,0.0069 -0.01581,0.0322 -0.02497,0.04959 -0.02497,0.04959 0,0 0,0 0,8.67e-4 -0.01248,0.02349 -0.0258,0.04525 -0.03245,0.04525 -0.005,0 -0.01415,-0.06265 0.0016,-0.147906 0.03329,-0.180097 0.112328,-0.460248 0.111495,-0.469819 0,-0.0052 0.01498,-0.05394 -0.05159,-0.07917 -0.0649,-0.02523 -0.0882,0.01652 -0.09402,0.01652 -0.0058,0 -0.01,0.01479 -0.01,0.01479 0,0 0.07239,-0.314952 -0.138119,-0.314952 -0.131465,0 -0.312852,0.150515 -0.402714,0.286241 -0.05658,0.03218 -0.177228,0.100929 -0.306195,0.174877 -0.04909,0.02871 -0.09985,0.05743 -0.147273,0.08439 -0.0033,-0.0035 -0.0067,-0.0078 -0.01,-0.01131 -0.254609,-0.284502 -0.725551,-0.48548 -0.705582,-0.867426 0.0075,-0.139205 0.05325,-0.504619 0.904441,-0.948338 0.700588,-0.361064 1.258063,-0.261011 1.354581,-0.03916 0.13812,0.316692 -0.298707,0.904836 -1.022592,0.9901 -0.276242,0.03218 -0.421019,-0.07917 -0.457628,-0.120935 -0.03828,-0.0435 -0.0441,-0.04611 -0.05824,-0.03741 -0.0233,0.01305 -0.0083,0.0522 0,0.07482 0.02163,0.05917 0.110664,0.163566 0.261264,0.214899 0.133129,0.04524 0.456797,0.07048 0.848694,-0.08787 0.43849,-0.177487 0.781297,-0.670797 0.680618,-1.084063 -0.100678,-0.419357 -0.76632,-0.557692 -1.396183,-0.323654 -0.374424,0.139207 -0.780465,0.358456 -1.072516,0.643827 -0.346965,0.339313 -0.40188,0.634255 -0.379415,0.757801 0.08071,0.438496 0.658985,0.723868 0.890296,0.935287 -0.01166,0.0069 -0.02247,0.01305 -0.03162,0.01827 -0.115656,0.06004 -0.556643,0.301032 -0.666474,0.555952 -0.124808,0.288852 0.01997,0.49592 0.115655,0.523761 0.297043,0.08614 0.602406,-0.06873 0.766321,-0.324523 0.163913,-0.25579 0.143944,-0.588143 0.06822,-0.740399 -8.41e-4,-0.0018 -0.0016,-0.0035 -0.0033,-0.0052 0.02995,-0.01827 0.06074,-0.03741 0.09069,-0.05568 0.05907,-0.03654 0.117319,-0.07048 0.167242,-0.09831 -0.02829,0.08092 -0.04909,0.177487 -0.05907,0.316692 -0.01248,0.163567 0.05159,0.375856 0.135625,0.459379 0.03745,0.03654 0.08154,0.03742 0.10983,0.03742 0.09818,0 0.142281,-0.08526 0.191372,-0.186187 0.05991,-0.123544 0.113991,-0.2671 0.113991,-0.2671 0,0 -0.06739,0.388036 0.115655,0.388036 0.06656,0 0.133962,-0.09049 0.163915,-0.136596 0,8.68e-4 0,8.68e-4 0,8.68e-4 0,0 0.0016,-0.0026 0.005,-0.0087 0.0067,-0.01131 0.01082,-0.01827 0.01082,-0.01827 0,0 0,-8.67e-4 0,-0.0018 0.02663,-0.04872 0.08653,-0.159217 0.175564,-0.342795 0.114823,-0.236649 0.225485,-0.532461 0.225485,-0.532461 0,0 0.01,0.07221 0.0441,0.192277 0.01997,0.07048 0.06157,0.147906 0.09485,0.22273 -0.02663,0.03916 -0.04327,0.0609 -0.04327,0.0609 0,0 0,0 8.41e-4,8.68e-4 -0.02163,0.02958 -0.04493,0.06177 -0.07072,0.0931 -0.09069,0.113105 -0.198861,0.24274 -0.213838,0.280152 -0.01748,0.04437 -0.01331,0.07656 0.01997,0.102661 0.02413,0.01915 0.06739,0.02176 0.111495,0.01915 0.08154,-0.0061 0.138954,-0.02697 0.167243,-0.04002 0.0441,-0.01653 0.09569,-0.04177 0.143945,-0.07917 0.08903,-0.06873 0.143113,-0.167047 0.13812,-0.296683 -0.0025,-0.07134 -0.02497,-0.142685 -0.05241,-0.209678 0.0083,-0.01217 0.01581,-0.02436 0.02413,-0.03654 0.140616,-0.214898 0.249615,-0.450678 0.249615,-0.450678 0,0 0.01,0.07221 0.0441,0.192278 0.01664,0.0609 0.05076,0.127024 0.08071,0.191408 -0.132296,0.112235 -0.213837,0.242739 -0.242959,0.328003 -0.05241,0.158346 -0.01166,0.229689 0.06573,0.24622 0.03495,0.0078 0.08487,-0.0096 0.12148,-0.0261 0.04659,-0.01566 0.10151,-0.04263 0.153929,-0.08265 0.08903,-0.06873 0.174732,-0.164437 0.169739,-0.294072 -0.0025,-0.05917 -0.01748,-0.117455 -0.03828,-0.174007 0.112326,-0.04872 0.257103,-0.0757 0.441819,-0.05307 0.396057,0.04872 0.47427,0.307122 0.459293,0.415877 -0.01498,0.108754 -0.09818,0.167916 -0.12564,0.186186 -0.02746,0.01827 -0.03662,0.02437 -0.03412,0.03741 0.0033,0.01915 0.01664,0.01827 0.03994,0.01479 0.03245,-0.0061 0.208013,-0.08787 0.215501,-0.287981 0.01248,-0.25579 -0.220494,-0.535072 -0.63236,-0.532461 z m -3.055295,1.077104 c -0.131465,0.149645 -0.314517,0.206198 -0.393561,0.158346 -0.08487,-0.05133 -0.05159,-0.272321 0.109831,-0.430667 0.09818,-0.09658 0.224653,-0.186188 0.308691,-0.241 0.01914,-0.01217 0.04743,-0.02958 0.08154,-0.05133 0.0058,-0.0035 0.0092,-0.0052 0.0092,-0.0052 v 0 c 0.0067,-0.0043 0.01331,-0.0087 0.01997,-0.01305 0.05907,0.22621 0.0025,0.425448 -0.135624,0.582924 z m 0.95686,-0.680367 c -0.04577,0.116584 -0.14145,0.415007 -0.199693,0.398475 -0.04993,-0.01392 -0.08071,-0.240129 -0.01,-0.463729 0.03578,-0.112234 0.111494,-0.246219 0.155593,-0.298421 0.07155,-0.08353 0.150602,-0.111365 0.169739,-0.07743 0.02413,0.04437 -0.08736,0.368026 -0.115656,0.441109 z m 0.789617,0.394995 c -0.01914,0.01044 -0.03745,0.0174 -0.04577,0.01218 -0.0058,-0.0035 0.0083,-0.0174 0.0083,-0.0174 0,0 0.09901,-0.111365 0.13812,-0.161827 0.02247,-0.02958 0.04909,-0.06438 0.07738,-0.103534 0,0.0035 0,0.0078 0,0.01131 0,0.133115 -0.123144,0.222729 -0.178059,0.25927 z m 0.609062,-0.145296 c -0.01415,-0.01044 -0.01165,-0.04523 0.03578,-0.153996 0.01831,-0.04263 0.06157,-0.113974 0.135624,-0.182707 0.0083,0.02784 0.01415,0.05482 0.01331,0.08004 -8.41e-4,0.167917 -0.115655,0.23056 -0.184716,0.25666 z"
         id="path824"
         style="fill:#cd6799;fill-opacity:1;stroke:#faf5fa;stroke-width:0.0727777;stroke-linecap:round;stroke-linejoin:round;stroke-miterlimit:4;stroke-dasharray:none;stroke-opacity:1" />
      <g
         aria-label="Swing"
         transform="matrix(0.01748859,-0.00173712,0.00186194,0.01631613,66.764387,55.197635)"
         id="text2568"
         style="font-size:85.3333px;line-height:1.25;font-family:Vision;-inkscape-font-specification:'Vision, Normal';letter-spacing:0px;word-spacing:0px;white-space:pre;shape-inside:url(#rect2570);fill:#eb96eb;stroke:#faf5fa;stroke-width:4.088">
        <path
           d="m 139.18341,598.63692 13.632,-0.192 v 7.872 q -2.304,-0.384 -5.376,-0.384 -3.072,0 -6.912,0.384 0,14.784 -14.208,29.952 -14.208,15.168 -34.368004,24.576 -19.968,9.6 -37.248,9.6 -9.024,0 -14.784,-4.608 -5.568,-4.608 -5.568,-12.096 0,-11.136 14.784,-23.232 14.784,-12.096 34.56,-19.968 19.776004,-7.872 35.712004,-9.216 -1.92,-2.88 -5.952,-4.992 -4.032,-2.112 -16.512004,-6.528 -12.48,-4.608 -17.664,-9.984 -5.184,-5.568 -5.184,-15.552 0,-9.984 10.752,-22.848 10.752,-12.864 25.344004,-21.504 14.784,-8.832 25.92,-8.832 4.992,0 8.256,3.648 3.264,3.456 3.264,8.64 0,8.448 -10.176,21.312 -10.176,12.672 -22.656,19.392 l -4.608,-6.528 q 7.488,-3.84 13.056,-11.904 5.76,-8.256 5.76,-14.208 0,-5.952 -6.336,-5.952 -9.024,0 -20.736,11.328 -11.520004,11.136 -11.520004,20.928 0,6.72 3.456,10.56 3.456,3.84 17.472004,9.6 14.016,5.568 19.968,9.984 5.952,4.224 7.872,10.752 z m -85.632004,50.112 q 0,9.216 14.976,9.216 8.256,0 21.312,-6.144 13.248004,-5.952 23.232004,-16.896 10.176,-10.752 10.176,-22.08 0,-1.344 -0.576,-4.032 -26.304004,2.496 -47.808004,14.784 -21.312,12.288 -21.312,25.152 z"
           style="font-size:192px;font-family:'Marck Script';-inkscape-font-specification:'Marck Script, Normal'"
           id="path39788" />
        <path
           d="m 264.55901,558.70092 5.376,4.992 -11.52,14.016 q -20.352,25.152 -30.144,49.92 -2.496,5.184 -5.184,5.184 -2.496,0 -4.224,-0.576 -1.536,-0.768 -3.648,-4.992 -1.92,-4.224 -2.688,-10.176 -0.768,-5.952 -1.344,-10.176 -0.576,-4.224 -0.768,-6.144 -0.192,-2.112 -0.576,-4.224 -0.192,-2.304 -0.384,-3.456 -0.192,-1.152 -0.384,-2.304 -0.192,-1.152 -0.576,-2.112 -0.384,-1.152 -0.576,-1.92 -0.192,-0.96 -0.96,-3.072 -0.576,-2.112 -0.96,-3.648 -9.984,10.752 -17.088,25.344 -2.688,5.568 -10.56,22.272 -1.728,3.648 -4.8,3.648 -2.88,0 -4.8,-0.576 -1.728,-0.768 -3.648,-4.608 -1.92,-3.84 -2.88,-11.52 -4.608,-38.592 -8.832,-52.608 5.568,-1.536 11.136,-1.536 0.96,1.728 2.496,10.56 3.264,17.088 8.256,40.128 9.408,-18.048 20.736,-33.216 11.52,-15.36 15.168,-15.36 4.224,0 5.76,5.952 1.728,5.76 2.88,19.584 1.344,13.632 3.456,22.848 18.048,-30.912 41.28,-52.224 z"
           style="font-size:192px;font-family:'Marck Script';-inkscape-font-specification:'Marck Script, Normal'"
           id="path39790" />
        <path
           d="m 309.29467,551.98092 q -10.752,0 -10.752,-8.64 0,-4.8 2.688,-8.064 2.688,-3.264 6.912,-3.264 4.224,0 6.912,2.496 2.688,2.496 2.688,6.528 0,4.032 -2.304,7.488 -2.304,3.456 -6.144,3.456 z m -2.496,56.64 3.84,3.264 q -4.608,8.832 -12.288,15.168 -7.488,6.144 -13.632,6.144 -10.752,0 -10.752,-14.976 0,-18.624 15.36,-48.576 3.456,-6.528 4.032,-7.68 l 8.256,4.992 q -4.032,7.296 -9.984,23.232 -5.76,15.936 -5.76,20.544 0,4.416 1.92,6.336 1.92,1.92 4.608,1.92 5.184,0 14.4,-10.368 z"
           style="font-size:192px;font-family:'Marck Script';-inkscape-font-specification:'Marck Script, Normal'"
           id="path39792" />
        <path
           d="m 402.0306,610.15692 4.032,3.072 q -4.224,8.448 -11.712,14.208 -7.296,5.76 -13.248,5.76 -5.952,0 -9.408,-3.456 -3.456,-3.456 -3.456,-8.64 0,-5.184 6.528,-18.048 6.72,-13.056 6.72,-19.2 0,-2.688 -2.304,-4.8 -2.112,-2.304 -5.184,-2.304 -9.792,0 -19.776,14.976 -9.984,14.784 -22.272,42.816 l -11.52,-4.032 q 3.648,-22.272 10.368,-43.392 6.912,-21.312 12.672,-30.528 l 7.872,2.496 q -5.376,13.632 -13.632,47.04 26.496,-45.312 48.768,-45.312 4.8,0 7.872,3.264 3.264,3.264 3.264,7.68 0,4.416 -1.152,8.064 -1.152,3.456 -7.296,16.512 -5.952,12.864 -5.952,16.128 0,3.264 1.92,5.184 1.92,1.728 3.648,1.728 1.728,0 2.88,-0.576 1.152,-0.576 2.496,-1.728 1.536,-1.152 2.688,-2.112 1.152,-0.96 2.688,-2.496 1.728,-1.728 2.496,-2.304 z"
           style="font-size:192px;font-family:'Marck Script';-inkscape-font-specification:'Marck Script, Normal'"
           id="path39794" />
        <path
           d="m 493.42237,626.47692 0.192,4.608 q -1.92,1.152 -17.472,6.912 -6.144,36.672 -18.048,52.992 -11.904,16.32 -29.184,16.32 -8.064,0 -12.864,-5.184 -4.8,-5.184 -4.8,-13.44 0,-16.512 15.168,-30.912 15.168,-14.208 40.512,-22.464 2.88,-12.864 10.368,-36.288 -12.864,19.584 -23.424,26.496 -10.368,6.912 -18.816,6.912 -8.448,0 -12.864,-4.608 -4.224,-4.608 -4.224,-12.288 0,-12.672 10.56,-25.728 10.56,-13.248 26.496,-21.504 16.128,-8.448 31.104,-8.448 l 1.536,6.72 q -21.312,2.304 -36.672,14.976 -15.168,12.672 -15.168,24.384 0,4.992 3.072,8.256 3.072,3.264 7.488,3.264 6.528,0 19.776,-13.824 13.248,-13.824 18.624,-23.616 l 7.104,4.032 q -10.56,28.224 -14.592,47.616 z m -27.648,14.592 q -16.704,7.68 -27.648,18.432 -10.944,10.752 -10.944,19.584 0,4.608 2.688,7.488 2.688,2.88 6.72,2.88 8.064,0 15.936,-11.328 7.872,-11.328 13.248,-37.056 z"
           style="font-size:192px;font-family:'Marck Script';-inkscape-font-specification:'Marck Script, Normal'"
           id="path39796" />
      </g>
    </g>
  </g>
</svg>
