<?xml version="1.0" encoding="UTF-8" standalone="no"?>
<!-- Created with Inkscape (http://www.inkscape.org/) -->

<svg
   width="21.166666mm"
   height="12.699999mm"
   viewBox="0 0 21.166666 12.699999"
   version="1.1"
   id="svg5"
   inkscape:version="1.1 (c68e22c387, 2021-05-23)"
   sodipodi:docname="sassswing-logo-01-original.svg"
   xmlns:inkscape="http://www.inkscape.org/namespaces/inkscape"
   xmlns:sodipodi="http://sodipodi.sourceforge.net/DTD/sodipodi-0.dtd"
   xmlns="http://www.w3.org/2000/svg"
   xmlns:svg="http://www.w3.org/2000/svg">
  <sodipodi:namedview
     id="namedview7"
     pagecolor="#ffffff"
     bordercolor="#666666"
     borderopacity="1.0"
     inkscape:pageshadow="2"
     inkscape:pageopacity="0.0"
     inkscape:pagecheckerboard="0"
     inkscape:document-units="mm"
     showgrid="false"
     inkscape:zoom="4.8177329"
     inkscape:cx="35.909006"
     inkscape:cy="23.351232"
     inkscape:window-width="1920"
     inkscape:window-height="1017"
     inkscape:window-x="-8"
     inkscape:window-y="-8"
     inkscape:window-maximized="1"
     inkscape:current-layer="layer1"
     fit-margin-top="0"
     fit-margin-left="0"
     fit-margin-right="0"
     fit-margin-bottom="0"
     units="px" />
  <defs
     id="defs2">
    <rect
       x="38.192238"
       y="476.57272"
       width="704.06561"
       height="416.79355"
       id="rect2570" />
  </defs>
  <g
     inkscape:label="Calque 1"
     inkscape:groupmode="layer"
     id="layer1"
     transform="translate(-68.282033,-59.232297)">
    <path
       fill="#cd6799"
       d="m 79.904286,64.747752 c -0.264561,0.0014 -0.494494,0.06598 -0.687027,0.16145 -0.07064,-0.141795 -0.141284,-0.268147 -0.15375,-0.360806 -0.01385,-0.108101 -0.03047,-0.174085 -0.01385,-0.303245 0.01662,-0.12916 0.09142,-0.313073 0.09003,-0.327112 -0.0014,-0.01404 -0.01662,-0.08002 -0.168986,-0.08143 -0.152365,-0.0014 -0.283953,0.02948 -0.29919,0.0702 -0.01524,0.04071 -0.04433,0.133371 -0.06372,0.228838 -0.02631,0.140391 -0.304729,0.641588 -0.46402,0.90412 -0.05125,-0.102486 -0.09557,-0.192336 -0.10527,-0.263936 -0.01385,-0.108101 -0.03048,-0.174085 -0.01385,-0.303245 0.01662,-0.12916 0.09142,-0.313073 0.09003,-0.327112 -0.0014,-0.01404 -0.01662,-0.08002 -0.168987,-0.08143 -0.152364,-0.0014 -0.283952,0.02948 -0.299189,0.0702 -0.01523,0.04071 -0.03186,0.136179 -0.06372,0.228838 -0.03186,0.09266 -0.401689,0.929391 -0.498648,1.145593 -0.04987,0.11091 -0.09281,0.199356 -0.123278,0.259725 0,0 0,0 0,0 0,0 -0.0014,0.0042 -0.0055,0.01123 -0.02632,0.05195 -0.04156,0.08002 -0.04156,0.08002 0,0 0,0 0,0.0014 -0.02078,0.03791 -0.04294,0.073 -0.05402,0.073 -0.0083,0 -0.02355,-0.101082 0.0027,-0.238666 0.05541,-0.29061 0.186993,-0.74267 0.185608,-0.758113 0,-0.0084 0.02493,-0.08704 -0.08588,-0.127756 -0.108041,-0.04071 -0.146825,0.02667 -0.15652,0.02667 -0.0097,0 -0.01662,0.02387 -0.01662,0.02387 0,0 0.120507,-0.508217 -0.229932,-0.508217 -0.218851,0 -0.52081,0.242877 -0.670405,0.461888 -0.09419,0.05194 -0.295034,0.162854 -0.509729,0.282187 -0.08172,0.04633 -0.166217,0.09266 -0.245169,0.136179 -0.0055,-0.0056 -0.01108,-0.01264 -0.01662,-0.01825 -0.423852,-0.45908 -1.207838,-0.783384 -1.174595,-1.399702 0.01246,-0.224627 0.08865,-0.81427 1.505641,-1.530267 1.166284,-0.582624 2.094324,-0.421174 2.255,-0.06318 0.229932,0.511025 -0.497264,1.460071 -1.702331,1.597654 -0.459865,0.05194 -0.700878,-0.127756 -0.761824,-0.195144 -0.06372,-0.07019 -0.07341,-0.07441 -0.09696,-0.06037 -0.03878,0.02106 -0.01385,0.08423 0,0.120737 0.03601,0.09547 0.184223,0.263935 0.434932,0.346766 0.221621,0.073 0.760439,0.113717 1.412838,-0.141795 0.729965,-0.286398 1.300641,-1.082418 1.13304,-1.749277 -0.167601,-0.676686 -1.27571,-0.899908 -2.324257,-0.522256 -0.62331,0.224627 -1.299256,0.578413 -1.785438,1.038897 -0.577601,0.547526 -0.66902,1.023453 -0.631621,1.222809 0.134358,0.707572 1.097026,1.168056 1.482094,1.509207 -0.0194,0.01123 -0.0374,0.02106 -0.05263,0.02948 -0.192534,0.09687 -0.926656,0.485754 -1.109493,0.897101 -0.20777,0.4661 0.03324,0.800231 0.192534,0.845156 0.494493,0.138988 1.002837,-0.110909 1.275709,-0.52366 0.272871,-0.41275 0.239628,-0.949045 0.11358,-1.19473 -0.0014,-0.0028 -0.0027,-0.0056 -0.0055,-0.0084 0.04986,-0.02948 0.101115,-0.06037 0.150979,-0.08985 0.09835,-0.05896 0.195304,-0.113717 0.278412,-0.158642 -0.04709,0.130564 -0.08172,0.286398 -0.09834,0.511024 -0.02078,0.263936 0.08588,0.606491 0.225777,0.741267 0.06233,0.05896 0.135743,0.06037 0.182838,0.06037 0.163446,0 0.236857,-0.137583 0.31858,-0.300437 0.09973,-0.199356 0.189764,-0.431002 0.189764,-0.431002 0,0 -0.112196,0.626146 0.192533,0.626146 0.110812,0 0.223008,-0.146007 0.272872,-0.220415 0,0.0014 0,0.0014 0,0.0014 0,0 0.0027,-0.0042 0.0083,-0.01404 0.01108,-0.01825 0.01801,-0.02948 0.01801,-0.02948 0,0 0,-0.0014 0,-0.0028 0.04433,-0.07862 0.144054,-0.256917 0.292264,-0.553143 0.191148,-0.381864 0.375371,-0.859195 0.375371,-0.859195 0,0 0.01662,0.116525 0.07341,0.310265 0.03324,0.113717 0.1025,0.238665 0.157906,0.359402 -0.04433,0.06318 -0.07203,0.09827 -0.07203,0.09827 0,0 0,0 0.0014,0.0014 -0.03601,0.04773 -0.0748,0.09968 -0.117736,0.150219 -0.15098,0.182509 -0.331048,0.391692 -0.35598,0.45206 -0.02909,0.0716 -0.02216,0.123545 0.03324,0.165662 0.04017,0.03089 0.112196,0.0351 0.185608,0.03089 0.135744,-0.0098 0.231318,-0.04352 0.278412,-0.06458 0.07341,-0.02667 0.159291,-0.06739 0.239629,-0.127757 0.148209,-0.110909 0.238243,-0.269551 0.229932,-0.478734 -0.0041,-0.115121 -0.04156,-0.230242 -0.08726,-0.338344 0.01385,-0.01965 0.02632,-0.03931 0.04017,-0.05896 0.234087,-0.346767 0.41554,-0.727227 0.41554,-0.727227 0,0 0.01662,0.116525 0.07341,0.310265 0.0277,0.09827 0.08449,0.204971 0.134358,0.308861 -0.220236,0.181105 -0.35598,0.391692 -0.404459,0.529275 -0.08726,0.255513 -0.0194,0.370634 0.109425,0.397308 0.05818,0.01264 0.141284,-0.01544 0.20223,-0.04212 0.07757,-0.02527 0.168986,-0.06879 0.25625,-0.133372 0.148209,-0.110909 0.290878,-0.26534 0.282567,-0.474523 -0.0041,-0.09547 -0.02909,-0.189528 -0.06372,-0.280783 0.186993,-0.07862 0.428007,-0.12214 0.735507,-0.08564 0.659324,0.07862 0.789527,0.495581 0.764594,0.671071 -0.02493,0.175489 -0.163446,0.270955 -0.209155,0.300437 -0.04571,0.02948 -0.06095,0.03931 -0.05679,0.06037 0.0055,0.03089 0.0277,0.02948 0.06649,0.02387 0.05402,-0.0098 0.346283,-0.141795 0.358749,-0.464695 0.02078,-0.412751 -0.36706,-0.863407 -1.052702,-0.859195 z m -5.086215,1.738046 c -0.218851,0.241473 -0.523581,0.332727 -0.655168,0.255512 -0.141284,-0.08283 -0.08588,-0.439425 0.182838,-0.694938 0.163445,-0.155834 0.373985,-0.300437 0.513884,-0.388884 0.03186,-0.01965 0.07895,-0.04773 0.135743,-0.08283 0.0097,-0.0056 0.01524,-0.0084 0.01524,-0.0084 v 0 c 0.01108,-0.007 0.02216,-0.01404 0.03324,-0.02106 0.09834,0.365018 0.0041,0.686514 -0.225777,0.940623 z m 1.592905,-1.097861 c -0.07618,0.188124 -0.235473,0.669667 -0.332432,0.642992 -0.08311,-0.02246 -0.134359,-0.38748 -0.01662,-0.748286 0.05956,-0.181105 0.185608,-0.397307 0.25902,-0.481542 0.119122,-0.134776 0.250709,-0.179701 0.282568,-0.124949 0.04017,0.0716 -0.14544,0.593856 -0.192536,0.711785 z m 1.314493,0.637377 c -0.03186,0.01685 -0.06233,0.02808 -0.07618,0.01965 -0.0097,-0.0056 0.01385,-0.02808 0.01385,-0.02808 0,0 0.164832,-0.179701 0.229932,-0.261128 0.0374,-0.04773 0.08172,-0.103889 0.128818,-0.167065 0,0.0056 0,0.01263 0,0.01825 0,0.214799 -0.205,0.359402 -0.296419,0.418367 z m 1.013918,-0.234454 c -0.02355,-0.01685 -0.01939,-0.073 0.05956,-0.248493 0.03048,-0.06879 0.1025,-0.183912 0.225777,-0.294822 0.01385,0.04493 0.02355,0.08845 0.02216,0.129161 -0.0014,0.270955 -0.192534,0.372037 -0.3075,0.414154 z"
       id="path824"
       style="fill:#cd6799;fill-opacity:1;stroke:#faf5fa;stroke-width:0.119281;stroke-linecap:round;stroke-linejoin:round;stroke-miterlimit:4;stroke-dasharray:none;stroke-opacity:1" />
    <g
       id="g826"
       style="fill:#cd6799;fill-opacity:1;stroke:#faf5fa;stroke-width:8.55375;stroke-linecap:round;stroke-linejoin:round;stroke-miterlimit:4;stroke-dasharray:none;stroke-opacity:1"
       transform="matrix(0.01385135,0,0,0.01403914,73.374761,61.434515)" />
    <g
       id="g828"
       style="fill:#cd6799;fill-opacity:1;stroke:#faf5fa;stroke-width:8.55375;stroke-linecap:round;stroke-linejoin:round;stroke-miterlimit:4;stroke-dasharray:none;stroke-opacity:1"
       transform="matrix(0.01385135,0,0,0.01403914,73.374761,61.434515)" />
    <g
       id="g830"
       style="fill:#cd6799;fill-opacity:1;stroke:#faf5fa;stroke-width:8.55375;stroke-linecap:round;stroke-linejoin:round;stroke-miterlimit:4;stroke-dasharray:none;stroke-opacity:1"
       transform="matrix(0.01385135,0,0,0.01403914,73.374761,61.434515)" />
    <g
       id="g832"
       style="fill:#cd6799;fill-opacity:1;stroke:#faf5fa;stroke-width:8.55375;stroke-linecap:round;stroke-linejoin:round;stroke-miterlimit:4;stroke-dasharray:none;stroke-opacity:1"
       transform="matrix(0.01385135,0,0,0.01403914,73.374761,61.434515)" />
    <g
       id="g834"
       style="fill:#cd6799;fill-opacity:1;stroke:#faf5fa;stroke-width:8.55375;stroke-linecap:round;stroke-linejoin:round;stroke-miterlimit:4;stroke-dasharray:none;stroke-opacity:1"
       transform="matrix(0.01385135,0,0,0.01403914,73.374761,61.434515)" />
    <g
       id="g836"
       style="fill:#cd6799;fill-opacity:1;stroke:#faf5fa;stroke-width:8.55375;stroke-linecap:round;stroke-linejoin:round;stroke-miterlimit:4;stroke-dasharray:none;stroke-opacity:1"
       transform="matrix(0.01385135,0,0,0.01403914,73.374761,61.434515)" />
    <g
       aria-label="Swing"
       transform="matrix(0.02897809,-0.00279002,0.00308519,0.02620562,69.336158,52.310384)"
       id="text2568"
       style="font-size:85.3333px;line-height:1.25;font-family:Vision;-inkscape-font-specification:'Vision, Normal';letter-spacing:0px;word-spacing:0px;white-space:pre;shape-inside:url(#rect2570);fill:#eb96eb;stroke:#faf5fa;stroke-width:4.088">
      <path
         d="m 139.18341,598.63692 13.632,-0.192 v 7.872 q -2.304,-0.384 -5.376,-0.384 -3.072,0 -6.912,0.384 0,14.784 -14.208,29.952 -14.208,15.168 -34.368004,24.576 -19.968,9.6 -37.248,9.6 -9.024,0 -14.784,-4.608 -5.568,-4.608 -5.568,-12.096 0,-11.136 14.784,-23.232 14.784,-12.096 34.56,-19.968 19.776004,-7.872 35.712004,-9.216 -1.92,-2.88 -5.952,-4.992 -4.032,-2.112 -16.512004,-6.528 -12.48,-4.608 -17.664,-9.984 -5.184,-5.568 -5.184,-15.552 0,-9.984 10.752,-22.848 10.752,-12.864 25.344004,-21.504 14.784,-8.832 25.92,-8.832 4.992,0 8.256,3.648 3.264,3.456 3.264,8.64 0,8.448 -10.176,21.312 -10.176,12.672 -22.656,19.392 l -4.608,-6.528 q 7.488,-3.84 13.056,-11.904 5.76,-8.256 5.76,-14.208 0,-5.952 -6.336,-5.952 -9.024,0 -20.736,11.328 -11.520004,11.136 -11.520004,20.928 0,6.72 3.456,10.56 3.456,3.84 17.472004,9.6 14.016,5.568 19.968,9.984 5.952,4.224 7.872,10.752 z m -85.632004,50.112 q 0,9.216 14.976,9.216 8.256,0 21.312,-6.144 13.248004,-5.952 23.232004,-16.896 10.176,-10.752 10.176,-22.08 0,-1.344 -0.576,-4.032 -26.304004,2.496 -47.808004,14.784 -21.312,12.288 -21.312,25.152 z"
         style="font-size:192px;font-family:'Marck Script';-inkscape-font-specification:'Marck Script, Normal'"
         id="path39628" />
      <path
         d="m 264.55901,558.70092 5.376,4.992 -11.52,14.016 q -20.352,25.152 -30.144,49.92 -2.496,5.184 -5.184,5.184 -2.496,0 -4.224,-0.576 -1.536,-0.768 -3.648,-4.992 -1.92,-4.224 -2.688,-10.176 -0.768,-5.952 -1.344,-10.176 -0.576,-4.224 -0.768,-6.144 -0.192,-2.112 -0.576,-4.224 -0.192,-2.304 -0.384,-3.456 -0.192,-1.152 -0.384,-2.304 -0.192,-1.152 -0.576,-2.112 -0.384,-1.152 -0.576,-1.92 -0.192,-0.96 -0.96,-3.072 -0.576,-2.112 -0.96,-3.648 -9.984,10.752 -17.088,25.344 -2.688,5.568 -10.56,22.272 -1.728,3.648 -4.8,3.648 -2.88,0 -4.8,-0.576 -1.728,-0.768 -3.648,-4.608 -1.92,-3.84 -2.88,-11.52 -4.608,-38.592 -8.832,-52.608 5.568,-1.536 11.136,-1.536 0.96,1.728 2.496,10.56 3.264,17.088 8.256,40.128 9.408,-18.048 20.736,-33.216 11.52,-15.36 15.168,-15.36 4.224,0 5.76,5.952 1.728,5.76 2.88,19.584 1.344,13.632 3.456,22.848 18.048,-30.912 41.28,-52.224 z"
         style="font-size:192px;font-family:'Marck Script';-inkscape-font-specification:'Marck Script, Normal'"
         id="path39630" />
      <path
         d="m 309.29467,551.98092 q -10.752,0 -10.752,-8.64 0,-4.8 2.688,-8.064 2.688,-3.264 6.912,-3.264 4.224,0 6.912,2.496 2.688,2.496 2.688,6.528 0,4.032 -2.304,7.488 -2.304,3.456 -6.144,3.456 z m -2.496,56.64 3.84,3.264 q -4.608,8.832 -12.288,15.168 -7.488,6.144 -13.632,6.144 -10.752,0 -10.752,-14.976 0,-18.624 15.36,-48.576 3.456,-6.528 4.032,-7.68 l 8.256,4.992 q -4.032,7.296 -9.984,23.232 -5.76,15.936 -5.76,20.544 0,4.416 1.92,6.336 1.92,1.92 4.608,1.92 5.184,0 14.4,-10.368 z"
         style="font-size:192px;font-family:'Marck Script';-inkscape-font-specification:'Marck Script, Normal'"
         id="path39632" />
      <path
         d="m 402.0306,610.15692 4.032,3.072 q -4.224,8.448 -11.712,14.208 -7.296,5.76 -13.248,5.76 -5.952,0 -9.408,-3.456 -3.456,-3.456 -3.456,-8.64 0,-5.184 6.528,-18.048 6.72,-13.056 6.72,-19.2 0,-2.688 -2.304,-4.8 -2.112,-2.304 -5.184,-2.304 -9.792,0 -19.776,14.976 -9.984,14.784 -22.272,42.816 l -11.52,-4.032 q 3.648,-22.272 10.368,-43.392 6.912,-21.312 12.672,-30.528 l 7.872,2.496 q -5.376,13.632 -13.632,47.04 26.496,-45.312 48.768,-45.312 4.8,0 7.872,3.264 3.264,3.264 3.264,7.68 0,4.416 -1.152,8.064 -1.152,3.456 -7.296,16.512 -5.952,12.864 -5.952,16.128 0,3.264 1.92,5.184 1.92,1.728 3.648,1.728 1.728,0 2.88,-0.576 1.152,-0.576 2.496,-1.728 1.536,-1.152 2.688,-2.112 1.152,-0.96 2.688,-2.496 1.728,-1.728 2.496,-2.304 z"
         style="font-size:192px;font-family:'Marck Script';-inkscape-font-specification:'Marck Script, Normal'"
         id="path39634" />
      <path
         d="m 493.42237,626.47692 0.192,4.608 q -1.92,1.152 -17.472,6.912 -6.144,36.672 -18.048,52.992 -11.904,16.32 -29.184,16.32 -8.064,0 -12.864,-5.184 -4.8,-5.184 -4.8,-13.44 0,-16.512 15.168,-30.912 15.168,-14.208 40.512,-22.464 2.88,-12.864 10.368,-36.288 -12.864,19.584 -23.424,26.496 -10.368,6.912 -18.816,6.912 -8.448,0 -12.864,-4.608 -4.224,-4.608 -4.224,-12.288 0,-12.672 10.56,-25.728 10.56,-13.248 26.496,-21.504 16.128,-8.448 31.104,-8.448 l 1.536,6.72 q -21.312,2.304 -36.672,14.976 -15.168,12.672 -15.168,24.384 0,4.992 3.072,8.256 3.072,3.264 7.488,3.264 6.528,0 19.776,-13.824 13.248,-13.824 18.624,-23.616 l 7.104,4.032 q -10.56,28.224 -14.592,47.616 z m -27.648,14.592 q -16.704,7.68 -27.648,18.432 -10.944,10.752 -10.944,19.584 0,4.608 2.688,7.488 2.688,2.88 6.72,2.88 8.064,0 15.936,-11.328 7.872,-11.328 13.248,-37.056 z"
         style="font-size:192px;font-family:'Marck Script';-inkscape-font-specification:'Marck Script, Normal'"
         id="path39636" />
    </g>
  </g>
</svg>
