<?xml version="1.0" standalone="no"?>
<!DOCTYPE svg PUBLIC "-//W3C//DTD SVG 20010904//EN"
 "http://www.w3.org/TR/2001/REC-SVG-20010904/DTD/svg10.dtd">
<svg version="1.0" xmlns="http://www.w3.org/2000/svg"
 width="1280.000000pt" height="1280.000000pt" viewBox="0 0 1280.000000 1280.000000"
 preserveAspectRatio="xMidYMid meet">
<metadata>
Created by potrace 1.14, written by Peter Selinger 2001-2017
</metadata>
<g transform="translate(0.000000,1280.000000) scale(0.100000,-0.100000)"
fill="#000000" stroke="none">
<path d="M5045 8941 c-2 -2 -23 -5 -47 -6 -80 -5 -143 -15 -248 -41 -58 -13
-113 -27 -124 -29 -10 -2 -23 -9 -30 -14 -6 -5 -13 -9 -16 -9 -26 2 -215 -71
-345 -133 -49 -24 -92 -43 -95 -44 -3 0 -29 -13 -57 -28 -29 -15 -56 -27 -59
-26 -4 0 -10 -4 -13 -9 -3 -5 -26 -20 -51 -32 -25 -13 -64 -36 -87 -51 -23
-16 -44 -29 -47 -29 -8 0 -123 -80 -221 -154 -84 -63 -263 -237 -332 -321 -47
-58 -119 -171 -150 -236 -56 -115 -77 -198 -76 -304 1 -105 41 -206 134 -342
34 -49 187 -205 241 -245 20 -15 42 -34 50 -41 7 -7 54 -42 103 -77 50 -36 96
-71 103 -77 7 -7 17 -13 21 -13 4 0 21 -12 37 -26 16 -14 42 -32 59 -41 29
-15 55 -37 55 -46 0 -3 -12 -8 -27 -12 -37 -9 -187 -78 -191 -87 -2 -5 -8 -8
-14 -8 -5 0 -29 -13 -53 -30 -24 -16 -48 -30 -54 -30 -6 0 -11 -4 -11 -8 0 -5
-21 -23 -47 -40 -84 -55 -211 -175 -293 -277 -78 -96 -98 -124 -135 -190 -35
-63 -79 -179 -64 -169 8 4 7 0 -1 -16 -15 -27 -7 -129 13 -186 40 -110 92
-166 200 -218 69 -33 218 -82 282 -93 65 -10 241 -55 275 -70 40 -17 44 -14
-60 -43 -25 -7 -75 -23 -112 -35 -36 -13 -69 -21 -72 -17 -3 3 -6 0 -6 -6 0
-7 -8 -12 -18 -12 -10 0 -23 -5 -30 -12 -7 -7 -12 -9 -12 -6 0 12 -322 -139
-328 -154 -2 -4 -9 -8 -14 -8 -23 0 -276 -167 -356 -235 -52 -44 -181 -175
-205 -208 -105 -141 -122 -290 -46 -402 43 -63 141 -118 232 -131 86 -12 209
-1 332 29 11 3 34 8 50 12 92 21 379 144 397 170 4 5 8 7 8 3 0 -14 290 174
298 194 2 5 8 8 12 8 31 0 265 242 329 340 20 30 38 57 41 60 11 9 58 114 75
165 9 28 19 79 22 115 3 36 7 66 8 68 4 5 105 14 162 14 47 1 51 2 48 22 -2
11 -6 44 -9 72 -9 88 -15 104 -40 99 -11 -3 -43 -7 -71 -10 -27 -3 -74 -8
-102 -10 -32 -4 -53 -2 -53 4 0 19 -99 109 -152 137 -29 16 -84 40 -123 53
-87 30 -92 34 -58 52 16 8 34 20 41 27 7 6 18 12 23 12 17 0 120 83 170 136
143 153 220 364 214 582 -3 97 -10 142 -31 210 -13 45 -13 48 9 64 12 10 26
18 30 18 4 0 25 11 45 25 20 14 40 25 43 25 4 0 3 -17 -1 -37 -30 -138 -32
-289 -6 -412 17 -76 73 -195 114 -239 16 -18 14 -20 -33 -28 -52 -8 -165 -43
-165 -51 0 -4 8 -25 19 -47 22 -49 96 -254 106 -296 1 -3 5 -17 9 -31 4 -14 9
-32 10 -40 2 -8 6 -21 9 -29 6 -16 37 -124 41 -144 3 -12 22 -84 36 -131 5
-16 18 -68 30 -115 36 -141 95 -240 159 -267 57 -24 147 -12 182 24 23 24 73
126 83 173 2 8 29 77 59 153 30 75 52 137 49 137 -4 0 -2 4 3 8 13 9 48 72 40
72 -3 0 6 18 20 40 14 22 25 42 25 45 0 3 23 41 52 85 40 62 55 77 65 68 7 -6
13 -16 13 -22 0 -6 7 -24 15 -40 9 -16 31 -88 50 -160 18 -72 41 -158 50 -191
10 -33 18 -67 19 -75 1 -8 6 -24 10 -35 4 -11 13 -33 18 -50 19 -55 69 -130
105 -157 31 -24 43 -27 99 -25 57 2 65 5 92 37 17 18 36 52 43 74 7 23 16 46
20 51 4 6 8 13 8 18 1 4 1 8 2 10 0 1 2 9 4 17 5 27 68 173 121 280 49 99 207
369 223 380 4 3 17 21 29 40 11 20 29 45 39 57 10 12 25 31 33 43 60 87 126
176 132 178 21 9 3 40 -39 67 -26 17 -59 38 -74 48 l-28 18 -43 -43 c-24 -24
-72 -77 -107 -118 -35 -41 -68 -76 -73 -78 -4 -2 -8 -8 -8 -13 0 -5 -11 -22
-24 -37 -47 -52 -256 -364 -256 -381 0 -6 -4 -11 -9 -11 -5 0 -11 -8 -14 -17
-8 -23 -63 -123 -74 -134 -8 -8 -46 98 -57 158 -2 10 -9 38 -16 63 -7 25 -14
54 -16 65 -2 11 -6 31 -9 45 -4 14 -8 35 -11 46 -18 88 -71 222 -98 249 -52
52 -123 56 -178 9 -91 -75 -261 -328 -394 -584 -7 -14 -15 -32 -19 -40 -3 -8
-17 -35 -29 -60 l-24 -45 -12 30 c-7 17 -13 35 -14 40 -1 6 -5 16 -9 23 -5 6
-5 12 -1 12 3 0 2 6 -3 13 -9 10 -32 71 -39 102 -4 14 -25 76 -35 100 -19 45
-77 215 -74 215 2 0 -9 32 -25 70 l-29 70 42 1 c128 2 168 37 269 239 9 19 18
28 18 20 7 -83 45 -152 98 -178 63 -32 122 -18 186 44 32 31 76 84 70 84 -4 0
0 8 8 18 16 17 169 303 202 377 10 22 31 66 47 97 16 31 29 64 29 73 0 8 5 15
10 15 6 0 9 3 8 8 -1 4 7 28 19 53 11 26 27 63 34 83 7 20 17 35 22 33 4 -1
19 -34 32 -73 13 -38 37 -95 52 -126 27 -51 28 -57 14 -75 -9 -11 -27 -35 -41
-53 -14 -18 -30 -38 -35 -44 -6 -6 -30 -36 -55 -66 -24 -30 -51 -63 -60 -72
-8 -9 -20 -23 -25 -30 -6 -7 -24 -31 -41 -53 -52 -67 -67 -103 -60 -149 7 -43
35 -74 80 -88 56 -17 173 -4 266 30 154 56 255 146 297 263 18 51 25 169 12
213 -5 17 -12 44 -14 59 -3 15 -10 36 -17 46 -10 17 10 55 122 231 5 8 17 31
27 50 9 19 20 37 23 40 3 3 13 21 23 40 14 29 23 28 18 -2 0 -5 3 -8 9 -8 5 0
10 -11 10 -25 0 -14 9 -44 20 -65 11 -22 18 -40 15 -40 -2 0 4 -15 15 -32 11
-18 20 -38 20 -44 0 -6 -26 -38 -59 -70 -149 -151 -232 -367 -178 -467 21 -40
79 -77 119 -77 28 0 48 4 118 25 3 1 18 7 33 13 16 7 32 12 37 12 5 0 10 3 12
8 2 4 21 16 43 27 49 25 167 139 189 184 40 77 49 151 30 246 -13 66 -12 68
41 81 157 42 350 34 500 -18 201 -70 316 -249 246 -385 -17 -35 -71 -90 -115
-118 -22 -14 -29 -57 -13 -78 20 -28 78 -24 134 8 64 37 120 98 152 165 22 47
26 68 26 150 0 71 -5 107 -19 140 -49 120 -112 201 -201 259 -22 14 -42 28
-45 31 -10 12 -97 48 -165 70 -81 25 -295 36 -380 19 -27 -5 -62 -12 -76 -14
-14 -3 -61 -16 -103 -31 -43 -14 -79 -24 -81 -22 -10 11 -49 101 -62 142 -15
50 -21 189 -10 236 3 14 16 57 29 95 20 62 21 74 10 99 -20 40 -69 57 -159 55
-140 -4 -175 -26 -204 -134 -27 -98 -26 -96 -88 -225 -96 -200 -169 -326 -183
-312 -14 14 -35 152 -32 208 2 50 9 81 40 190 17 59 17 63 0 88 -9 15 -29 32
-44 37 -35 14 -159 13 -209 -1 -39 -11 -95 -39 -79 -40 5 0 4 -6 -1 -12 -5 -7
-18 -44 -28 -83 -16 -60 -44 -132 -112 -285 -9 -19 -24 -53 -33 -75 -10 -22
-32 -71 -49 -108 -17 -38 -31 -71 -31 -73 0 -3 -15 -38 -34 -77 -18 -40 -50
-111 -71 -159 -21 -49 -40 -88 -42 -88 -5 0 3 51 17 105 6 22 12 47 14 55 2 8
19 71 36 140 42 162 43 175 29 202 -16 29 -49 59 -60 53 -4 -3 -10 -1 -14 5
-3 5 -19 10 -36 10 -28 0 -29 1 -29 51 0 74 -19 128 -61 170 -39 39 -45 41
-134 42 -58 1 -155 -28 -155 -45 0 -5 -5 -8 -12 -8 -20 0 -151 -106 -198 -161
-55 -63 -81 -89 -91 -89 -5 0 -34 -15 -66 -34 -32 -18 -89 -50 -126 -70 -37
-20 -84 -46 -105 -58 -94 -54 -88 -53 -128 -16 -20 18 -48 44 -63 58 -14 14
-91 77 -171 140 -246 194 -325 274 -379 386 -26 53 -50 160 -43 187 1 4 4 24
7 45 2 20 7 51 11 67 9 42 83 195 94 195 6 0 10 5 10 11 0 12 6 20 91 113 48
53 157 146 233 201 16 11 34 25 40 30 7 6 21 15 31 22 11 7 58 36 105 64 118
73 259 148 400 213 39 18 226 86 251 91 8 2 39 10 67 19 29 8 52 12 52 9 0 -3
7 0 15 7 8 7 15 10 15 7 0 -3 17 -1 38 4 103 23 369 33 462 17 163 -29 273
-103 296 -198 56 -238 -187 -569 -546 -742 -176 -85 -382 -137 -551 -139 -73
-2 -156 9 -181 22 -10 6 -18 7 -18 4 0 -13 -119 58 -158 95 -50 45 -76 50
-104 18 -36 -41 -8 -123 68 -203 67 -71 169 -124 289 -151 58 -13 338 -12 415
2 41 8 91 17 110 20 19 3 40 7 45 8 6 1 57 17 115 35 112 35 241 93 303 135
21 14 40 26 43 26 22 0 223 186 276 255 12 17 26 32 30 33 5 2 8 10 8 18 0 8
4 14 9 14 10 0 18 15 81 140 82 165 108 306 86 469 -19 137 -94 253 -221 342
-77 54 -230 119 -317 133 -18 3 -44 8 -57 11 -71 14 -346 27 -356 16z m-51
-2048 c-3 -16 -10 -46 -16 -68 -6 -22 -11 -44 -12 -50 -3 -17 -58 -179 -65
-190 -3 -5 -6 -14 -7 -20 -2 -10 -63 -168 -91 -235 -30 -70 -68 -143 -77 -144
-5 0 -13 12 -17 28 -9 34 -5 217 6 261 4 17 8 35 9 40 12 48 30 99 51 143 14
28 25 55 24 58 0 4 3 10 8 13 5 3 21 26 36 51 41 70 113 140 142 140 9 0 12
-9 9 -27z m1466 -449 c-10 -30 -79 -114 -95 -114 -10 0 29 86 64 140 31 47 36
51 39 32 2 -12 -2 -38 -8 -58z m-2608 -270 c-1 -20 -7 -43 -13 -50 -6 -8 -8
-14 -4 -14 11 0 -63 -129 -104 -181 -31 -40 -85 -86 -154 -133 -18 -12 -18
-14 8 -44 29 -35 23 -42 -14 -16 -21 15 -23 23 -19 83 3 49 12 83 37 134 18
38 40 71 47 74 8 3 14 10 14 15 0 12 88 98 100 98 6 0 10 4 10 8 0 11 82 73
88 67 3 -3 5 -21 4 -41z m52 -1301 c-1 -32 -5 -67 -7 -78 -7 -27 -53 -131 -66
-147 -42 -53 -127 -154 -141 -168 -34 -34 -138 -117 -176 -140 -21 -13 -41
-26 -44 -30 -3 -3 -50 -28 -105 -57 -232 -119 -450 -144 -521 -60 -23 27 -25
37 -21 82 11 114 105 228 295 354 144 97 390 219 477 237 11 2 31 8 45 13 32
12 166 49 204 55 16 3 31 8 34 10 16 16 29 -19 26 -71z"/>
<path d="M6980 6539 c-35 -11 -93 -58 -112 -92 -26 -49 -26 -145 0 -196 34
-65 146 -101 245 -79 22 5 46 15 54 23 8 8 17 15 21 15 4 0 20 22 35 50 56
100 24 220 -69 265 -46 22 -125 28 -174 14z"/>
<path d="M10114 6394 c-30 -6 -58 -11 -62 -13 -21 -5 -88 -24 -97 -26 -36 -8
-174 -69 -245 -108 -294 -160 -523 -404 -610 -648 -18 -50 -23 -87 -24 -169
-1 -96 2 -110 27 -162 54 -110 156 -166 297 -163 74 1 168 23 222 51 15 8 29
14 30 13 5 -4 120 78 174 123 28 24 78 77 112 118 82 101 104 127 99 115 -3
-5 -8 -27 -11 -47 -3 -21 -10 -57 -15 -80 -11 -49 -18 -86 -26 -143 -11 -74
-17 -95 -27 -95 -5 0 -40 -14 -76 -32 -37 -17 -69 -32 -72 -33 -5 -1 -16 -6
-110 -58 -69 -38 -164 -99 -168 -109 -2 -5 -10 -8 -18 -8 -8 0 -14 -4 -14 -8
0 -4 -14 -16 -30 -25 -48 -29 -212 -196 -257 -262 -88 -131 -122 -234 -118
-366 2 -104 6 -122 31 -171 62 -121 168 -181 314 -180 223 3 429 131 558 348
29 49 56 101 59 117 3 15 9 27 14 27 5 0 8 3 7 8 -1 4 8 36 20 72 48 144 98
420 106 585 1 26 9 34 64 62 34 17 62 30 62 27 0 -2 37 16 83 40 90 47 92 50
73 148 -6 31 -10 36 -24 29 -9 -5 -63 -28 -120 -50 -92 -37 -131 -44 -118 -22
3 4 7 25 10 47 3 21 7 49 10 60 2 12 7 37 10 55 5 31 31 156 42 204 3 11 7 31
10 44 3 14 7 28 9 31 2 4 7 20 9 36 3 16 19 78 35 137 27 98 28 109 13 113 -9
3 -26 10 -37 15 -38 16 -126 49 -133 49 -4 0 -18 -21 -32 -47 -27 -54 -147
-233 -182 -275 -13 -14 -39 -46 -58 -70 -62 -77 -204 -214 -250 -241 -63 -35
-109 -40 -156 -13 -62 35 -79 67 -79 149 0 62 5 82 34 139 19 37 50 85 70 107
20 22 43 48 52 58 59 67 237 203 266 203 7 0 13 4 13 8 0 6 22 18 70 37 3 1
19 7 35 14 51 21 137 48 210 66 102 25 97 22 86 42 -5 10 -20 46 -33 80 -25
69 -24 69 -134 47z m-169 -1451 c-4 -21 -9 -49 -10 -63 -12 -104 -80 -324
-122 -399 -76 -133 -175 -215 -255 -210 -126 7 -166 110 -100 262 9 20 19 37
24 37 4 0 8 5 8 11 0 16 66 95 139 167 89 88 278 227 315 231 4 1 5 -16 1 -36z"/>
<path d="M8450 6223 c-69 -10 -121 -26 -180 -56 -36 -17 -67 -34 -70 -37 -3
-3 -23 -18 -45 -35 -66 -48 -215 -205 -215 -225 0 -6 -4 -10 -8 -10 -5 0 -44
-54 -87 -120 -43 -66 -80 -118 -83 -116 -2 3 1 27 6 53 6 26 14 68 18 93 5 25
8 47 9 50 5 17 19 88 21 105 1 11 3 20 4 20 2 0 6 16 14 60 3 17 14 62 25 100
11 39 17 73 13 76 -7 6 -166 39 -189 39 -32 0 -156 -352 -187 -530 -3 -14 -5
-25 -6 -25 -6 0 -57 -287 -65 -370 -3 -27 -8 -61 -10 -75 -5 -32 -15 -138 -20
-212 -4 -62 -6 -61 65 -73 56 -10 64 -12 80 -18 14 -5 62 -14 105 -20 16 -2
24 12 47 78 15 44 32 89 37 100 5 11 17 43 27 70 10 28 24 61 31 75 7 14 13
31 13 38 0 8 7 26 15 40 8 15 39 80 69 145 55 118 123 239 138 245 4 2 8 10 8
17 0 7 27 41 61 75 81 83 162 118 221 98 87 -31 83 -118 -22 -380 -100 -252
-100 -345 -2 -436 70 -65 218 -79 319 -29 119 57 236 176 303 305 19 37 29 67
24 72 -12 12 -110 60 -122 60 -5 0 -29 -21 -53 -48 -113 -122 -158 -144 -203
-98 -35 34 -27 102 31 251 8 22 19 49 23 60 16 41 69 191 83 235 18 57 21 147
7 199 -10 39 -65 105 -105 127 -18 10 -45 17 -105 28 -8 2 -26 1 -40 -1z"/>
<path d="M6801 6047 c-6 -6 -11 -15 -11 -20 0 -5 -13 -36 -28 -70 -16 -34 -35
-80 -43 -102 -8 -22 -16 -42 -19 -45 -6 -6 -79 -214 -86 -245 -3 -11 -7 -30
-10 -42 -2 -12 -9 -35 -15 -49 -5 -15 -12 -46 -15 -70 -3 -23 -7 -53 -10 -65
-13 -52 -12 -246 0 -299 32 -138 109 -205 230 -201 140 4 312 138 425 329 17
28 28 52 24 52 -3 0 2 8 11 19 16 18 16 20 -9 39 -15 12 -35 24 -46 27 -10 4
-19 10 -19 15 0 4 -9 10 -21 13 -14 4 -28 -4 -47 -26 -15 -17 -52 -56 -82 -86
-85 -84 -142 -98 -187 -47 -18 21 -21 35 -18 88 1 35 7 83 13 108 6 25 13 56
16 70 3 14 9 40 15 58 5 18 10 33 9 35 -2 17 93 305 125 379 l25 55 -52 22
c-28 11 -57 21 -63 21 -6 0 -13 3 -15 8 -1 4 -22 15 -45 24 -30 11 -44 13 -52
5z"/>
</g>
</svg>
